<?xml version="1.0" encoding="utf-8"?><svg viewBox="0 0 101 101" xmlns="http://www.w3.org/2000/svg" xmlns:xlink="http://www.w3.org/1999/xlink"><style>:root>svg{display:none}:root>svg:target{display:block}</style><svg viewBox="0 0 24 24" class="aw-6 ah-6" id="camera" xmlns="http://www.w3.org/2000/svg"><path d="M12 9a3.75 3.75 0 100 7.5A3.75 3.75 0 0012 9z"/><path fill-rule="evenodd" d="M9.344 3.071a49.52 49.52 0 015.312 0c.967.052 1.83.585 2.332 1.39l.821 1.317c.24.383.645.643 1.11.71.386.054.77.113 1.152.177 1.432.239 2.429 1.493 2.429 2.909V18a3 3 0 01-3 3h-15a3 3 0 01-3-3V9.574c0-1.416.997-2.67 2.429-2.909.382-.064.766-.123 1.151-.178a1.56 1.56 0 001.11-.71l.822-1.315a2.942 2.942 0 012.332-1.39zM6.75 12.75a5.25 5.25 0 1110.5 0 5.25 5.25 0 01-10.5 0zm12-1.5a.75.75 0 100-1.5.75.75 0 000 1.5z" clip-rule="evenodd"/></svg><svg viewBox="0 0 101 101" id="cross" xmlns="http://www.w3.org/2000/svg"><circle cx="51" cy="50" r="37"/><rect x="47" width="8" height="26" rx="1"/><rect y="54" width="8" height="26" rx="1" transform="rotate(-90 0 54)"/><rect x="75" y="54" width="8" height="26" rx="1" transform="rotate(-90 75 54)"/><rect x="55" y="101" width="8" height="26" rx="1" transform="rotate(-180 55 101)"/><circle cx="50.5" cy="49.5" r="12.5"/></svg><svg viewBox="0 0 82 27" id="logo" xmlns="http://www.w3.org/2000/svg"><path d="M4.544 23.156h12.24V26H.656v-2.592L12.824 3.752H.8V.908h15.912V3.5L4.544 23.156zm24.66 3.096c-2.327 0-4.451-.54-6.371-1.62-1.92-1.104-3.444-2.628-4.572-4.572-1.104-1.968-1.656-4.176-1.656-6.624 0-2.448.552-4.644 1.656-6.588 1.128-1.968 2.652-3.492 4.572-4.572C24.753 1.172 26.877.62 29.205.62c2.352 0 4.488.552 6.408 1.656 1.92 1.08 3.432 2.592 4.536 4.536 1.104 1.944 1.656 4.152 1.656 6.624 0 2.472-.552 4.68-1.656 6.624a12.028 12.028 0 01-4.536 4.572c-1.92 1.08-4.056 1.62-6.408 1.62zm0-2.844c1.753 0 3.325-.408 4.717-1.224 1.416-.816 2.52-1.98 3.312-3.492.816-1.512 1.224-3.264 1.224-5.256 0-2.016-.408-3.768-1.224-5.256-.792-1.512-1.884-2.676-3.276-3.492-1.392-.816-2.976-1.224-4.752-1.224-1.776 0-3.36.408-4.752 1.224-1.392.816-2.496 1.98-3.312 3.492-.792 1.488-1.188 3.24-1.188 5.256 0 1.992.396 3.744 1.188 5.256.816 1.512 1.92 2.676 3.312 3.492 1.416.816 3 1.224 4.752 1.224zM56.318 26L45.985 14.552V26H42.71V.908h3.276v11.628L56.353.908h4.14L49.117 13.472 60.601 26h-4.284zm19.355-5.58H64.728L62.712 26h-3.456l9.072-24.948h3.78L81.144 26h-3.456l-2.016-5.58zm-.936-2.664L70.2 5.084l-4.536 12.672h9.072z"/></svg><svg viewBox="0 0 24 24" class="dw-6 dh-6" id="photo" xmlns="http://www.w3.org/2000/svg"><path fill-rule="evenodd" d="M1.5 6a2.25 2.25 0 012.25-2.25h16.5A2.25 2.25 0 0122.5 6v12a2.25 2.25 0 01-2.25 2.25H3.75A2.25 2.25 0 011.5 18V6zM3 16.06V18c0 .414.336.75.75.75h16.5A.75.75 0 0021 18v-1.94l-2.69-2.689a1.5 1.5 0 00-2.12 0l-.88.879.97.97a.75.75 0 11-1.06 1.06l-5.16-5.159a1.5 1.5 0 00-2.12 0L3 16.061zm10.125-7.81a1.125 1.125 0 112.25 0 1.125 1.125 0 01-2.25 0z" clip-rule="evenodd"/></svg><svg viewBox="0 0 25 30" id="play" xmlns="http://www.w3.org/2000/svg"><path d="M24 13.268c1.333.77 1.333 2.694 0 3.464L3 28.856c-1.333.77-3-.192-3-1.732V2.876C0 1.336 1.667.374 3 1.144l21 12.124z"/></svg></svg>