<?xml version="1.0" encoding="utf-8"?><svg viewBox="0 0 50 50" xmlns="http://www.w3.org/2000/svg" xmlns:xlink="http://www.w3.org/1999/xlink"><style>:root>svg{display:none}:root>svg:target{display:block}</style><svg viewBox="0 0 16 4" id="Vector" xmlns="http://www.w3.org/2000/svg"><path d="M4 2c0-1.1-.9-2-2-2S0 .9 0 2s.9 2 2 2 2-.9 2-2zm2 0c0 1.1.9 2 2 2s2-.9 2-2-.9-2-2-2-2 .9-2 2zm6 0c0 1.1.9 2 2 2s2-.9 2-2-.9-2-2-2-2 .9-2 2z"/></svg><svg viewBox="0 0 24 24" id="account" xmlns="http://www.w3.org/2000/svg"><path clip-rule="evenodd" d="M11.985 15.346c-3.868 0-7.17.585-7.17 2.927s3.281 2.948 7.17 2.948c3.867 0 7.17-.586 7.17-2.927s-3.282-2.948-7.17-2.948zM11.985 12.006A4.596 4.596 0 107.389 7.41a4.58 4.58 0 004.563 4.596h.033z"/></svg><svg viewBox="0 0 20 20" id="dashboard" xmlns="http://www.w3.org/2000/svg"><path clip-rule="evenodd" d="M1 4.5C1 1.875 1.028 1 4.5 1S8 1.875 8 4.5 8.011 8 4.5 8 1 7.125 1 4.5zm11 0c0-2.625.028-3.5 3.5-3.5s3.5.875 3.5 3.5.011 3.5-3.5 3.5S12 7.125 12 4.5zm-11 11c0-2.625.028-3.5 3.5-3.5s3.5.875 3.5 3.5.011 3.5-3.5 3.5S1 18.125 1 15.5zm11 0c0-2.625.028-3.5 3.5-3.5s3.5.875 3.5 3.5.011 3.5-3.5 3.5-3.5-.875-3.5-3.5z"/></svg><svg viewBox="0 0 22 22" id="deposit" xmlns="http://www.w3.org/2000/svg"><path d="M11 7.327v7.327m3.667-3.664H7.333"/><path clip-rule="evenodd" d="M15.686 1H6.314C3.048 1 1 3.312 1 6.585v8.83C1 18.688 3.038 21 6.314 21h9.372C18.962 21 21 18.688 21 15.415v-8.83C21 3.312 18.962 1 15.686 1z"/></svg><svg viewBox="0 0 50 50" id="easypay" xmlns="http://www.w3.org/2000/svg"><rect width="50" height="50" rx="25"/><path d="M19.6 37c-1.097 0-1.937-.28-2.52-.84-.56-.583-.84-1.412-.84-2.485V15.65c0-1.073.28-1.89.84-2.45.583-.583 1.423-.875 2.52-.875h11.865c.84 0 1.47.21 1.89.63.42.42.63 1.027.63 1.82 0 .817-.21 1.447-.63 1.89-.42.42-1.05.63-1.89.63H22.4v4.69h8.295c.817 0 1.435.21 1.855.63.443.42.665 1.038.665 1.855s-.222 1.435-.665 1.855c-.42.42-1.038.63-1.855.63H22.4v5.075h9.065c.84 0 1.47.222 1.89.665.42.42.63 1.027.63 1.82 0 .817-.21 1.435-.63 1.855-.42.42-1.05.63-1.89.63H19.6z"/></svg><svg viewBox="0 0 24 24" id="messages" xmlns="http://www.w3.org/2000/svg"><path clip-rule="evenodd" d="M14.738 2.762H8.085A3.82 3.82 0 004.25 6.49v10.713a3.828 3.828 0 003.742 3.91c.03 0 .06.002.092 0h7.989a3.887 3.887 0 003.729-3.91V8.038l-5.065-5.276z"/><path d="M14.475 2.75v2.909a2.574 2.574 0 002.568 2.575h2.755m-5.51 7.124h-5.4m3.355-3.752H8.887"/></svg><svg viewBox="0 0 22 20" id="payments" xmlns="http://www.w3.org/2000/svg"><path d="M20.639 12.396H16.59a2.693 2.693 0 01-2.693-2.692 2.693 2.693 0 012.693-2.69h4.048m-3.589 2.629h-.312"/><path clip-rule="evenodd" d="M6.748 1h8.643a5.248 5.248 0 015.248 5.248v7.177a5.248 5.248 0 01-5.248 5.247H6.748A5.248 5.248 0 011.5 13.425V6.248A5.248 5.248 0 016.748 1z"/><path d="M6.036 5.538h5.399"/></svg><svg viewBox="0 0 4 26" id="planka" xmlns="http://www.w3.org/2000/svg"><rect width="4" height="26" rx="1.5"/></svg><svg viewBox="0 0 24 24" id="search" xmlns="http://www.w3.org/2000/svg"><g opacity=".6" stroke-width="2" stroke-linecap="round" stroke-linejoin="round"><path clip-rule="evenodd" d="M10.5 18a7.5 7.5 0 100-15 7.5 7.5 0 000 15z"/><path d="M21 21l-5.2-5.2"/></g></svg><svg viewBox="0 0 24 24" id="setting" xmlns="http://www.w3.org/2000/svg"><path clip-rule="evenodd" d="M20.807 7.624l-.623-1.08a1.913 1.913 0 00-2.608-.705 1.904 1.904 0 01-2.61-.678 1.832 1.832 0 01-.255-.915 1.913 1.913 0 00-1.914-1.968h-1.254A1.904 1.904 0 009.64 4.191a1.913 1.913 0 01-1.913 1.886 1.83 1.83 0 01-.916-.257 1.913 1.913 0 00-2.608.705l-.669 1.099a1.913 1.913 0 00.696 2.608 1.913 1.913 0 010 3.314 1.904 1.904 0 00-.696 2.6l.632 1.088a1.913 1.913 0 002.609.742 1.895 1.895 0 012.6.696c.164.277.252.593.255.915 0 1.056.857 1.913 1.913 1.913h1.255a1.91 1.91 0 001.912-1.904 1.904 1.904 0 011.914-1.913c.321.009.636.097.915.256a1.913 1.913 0 002.609-.695l.659-1.099a1.904 1.904 0 00-.696-2.608 1.904 1.904 0 01-.696-2.61 1.88 1.88 0 01.696-.695 1.913 1.913 0 00.696-2.6v-.008z"/><circle cx="12.175" cy="11.889" r="2.636"/></svg><svg viewBox="0 0 24 24" id="shield_done" xmlns="http://www.w3.org/2000/svg"><g opacity=".6" stroke-width="1.5" stroke-linecap="round" stroke-linejoin="round"><path clip-rule="evenodd" d="M11.985 21.606s7.672-2.323 7.672-8.727c0-6.405.277-6.905-.337-7.521-.617-.616-6.33-2.608-7.335-2.608-1.006 0-6.72 1.992-7.334 2.608-.616.616-.338 1.116-.338 7.521 0 6.404 7.672 8.727 7.672 8.727z"/><path d="M9.386 11.875l1.892 1.895 3.898-3.9"/></g></svg><svg viewBox="0 0 16 10" id="stroke_1" xmlns="http://www.w3.org/2000/svg"><path d="M15 1.5l-7 7-7-7"/></svg><svg viewBox="0 0 20 20" id="tarnsfer" xmlns="http://www.w3.org/2000/svg"><path d="M13.832 6.175L8.11 11.959 1.6 7.888c-.932-.584-.738-2 .317-2.31L17.37 1.054c.966-.283 1.862.62 1.575 1.589l-4.573 15.445c-.313 1.056-1.722 1.245-2.3.308L8.106 11.96"/></svg><svg viewBox="0 0 22 22" id="transaction" xmlns="http://www.w3.org/2000/svg"><path d="M6.371 9.202v6.86M11.038 5.92v10.142m4.591-3.235v3.235"/><path clip-rule="evenodd" d="M15.686 1H6.314C3.048 1 1 3.312 1 6.585v8.83C1 18.688 3.038 21 6.314 21h9.372C18.962 21 21 18.688 21 15.415v-8.83C21 3.312 18.962 1 15.686 1z"/></svg><svg viewBox="0 0 24 24" id="withdraw" xmlns="http://www.w3.org/2000/svg"><path d="M7.39 8.984h-.933a3.685 3.685 0 00-3.685 3.685v4.875a3.685 3.685 0 003.685 3.684h11.13a3.685 3.685 0 003.684-3.684v-4.885a3.675 3.675 0 00-3.674-3.675h-.943M12.021 2.19v12.042M9.106 5.119l2.915-2.928 2.916 2.928"/></svg></svg>